<svg baseProfile="basic" xmlns="http://www.w3.org/2000/svg" width="64.748" height="64.748" viewBox="0 0 64.748 64.748" overflow="visible"><path fill="none" stroke="#036635" stroke-width="3" d="M13.959 23.166c2.532 0 5.64 1.036 6.905 2.303 1.266 1.266 2.302 4.373 2.302 6.905s-1.036 5.64-2.302 6.905c-1.266 1.267-4.373 2.303-6.905 2.303s-5.64-1.036-6.906-2.303a3.265 3.265 0 0 0-4.604 0c-1.266 1.267-1.266 3.339 0 4.604s2.302 4.373 2.302 6.905-1.036 5.64-2.302 6.906-1.266 3.338 0 4.604 3.338 1.266 4.604 0c1.267-1.266 4.374-2.302 6.906-2.302s5.64 1.036 6.905 2.302 3.338 1.266 4.604 0a3.265 3.265 0 0 0 0-4.604c-1.267-1.267-2.303-4.374-2.303-6.906s1.036-5.64 2.303-6.905c1.266-1.266 4.373-2.302 6.905-2.302s5.64 1.036 6.905 2.302c1.267 1.266 2.303 4.373 2.303 6.905s-1.036 5.64-2.303 6.906a3.265 3.265 0 0 0 0 4.604c1.267 1.266 3.339 1.266 4.604 0s4.373-2.302 6.905-2.302 5.64 1.036 6.906 2.302 3.338 1.266 4.604 0 1.266-3.338 0-4.604c-1.266-1.267-2.302-4.374-2.302-6.906s1.036-5.64 2.302-6.905 1.266-3.338 0-4.604a3.265 3.265 0 0 0-4.604 0c-1.267 1.267-4.374 2.303-6.906 2.303s-5.64-1.036-6.905-2.303c-1.266-1.266-2.302-4.373-2.302-6.905s1.036-5.64 2.302-6.905c1.266-1.267 4.373-2.303 6.905-2.303s5.64 1.036 6.906 2.303a3.265 3.265 0 0 0 4.604 0c1.266-1.267 1.266-3.339 0-4.604s-2.302-4.373-2.302-6.905 1.036-5.64 2.302-6.906 1.266-3.338 0-4.604-3.338-1.266-4.604 0c-1.267 1.266-4.374 2.302-6.906 2.302s-5.64-1.036-6.905-2.302-3.338-1.266-4.604 0a3.265 3.265 0 0 0 0 4.604c1.267 1.267 2.303 4.374 2.303 6.906s-1.036 5.64-2.303 6.905c-1.266 1.266-4.373 2.302-6.905 2.302s-5.64-1.036-6.905-2.302c-1.267-1.266-2.303-4.373-2.303-6.905s1.036-5.64 2.303-6.906a3.265 3.265 0 0 0 0-4.604c-1.267-1.266-3.339-1.266-4.604 0s-4.373 2.302-6.905 2.302-5.64-1.036-6.906-2.302-3.338-1.266-4.604 0-1.266 3.338 0 4.604c1.266 1.267 2.302 4.374 2.302 6.906s-1.036 5.64-2.302 6.905-1.266 3.338 0 4.604a3.265 3.265 0 0 0 4.604 0c1.266-1.267 4.374-2.303 6.906-2.303z"/></svg>